<svg xmlns="http://www.w3.org/2000/svg" viewBox="0 0 42 42"><circle cx="21" cy="21" r="21" fill="#fbd971"/><path d="M19.387 32.993c-1.981 0-3.953-.38-5.771-1.138a1 1 0 1 1 .77-1.846c3.051 1.271 6.607 1.313 9.753.116 3.217-1.224 5.682-3.561 6.939-6.578a1 1 0 0 1 1.846.77c-1.47 3.529-4.338 6.257-8.073 7.678a15.4 15.4 0 0 1-5.464.998z" fill="#f0c419"/><path d="M12.545 10.702A2.837 2.837 0 0 1 15.146 9c1.567 0 2.695 1.294 2.837 2.837 0 0 .077.383-.092 1.072-.229.939-.769 1.773-1.496 2.409l-3.85 3.317-3.785-3.316c-.727-.636-1.267-1.471-1.496-2.409-.169-.689-.092-1.072-.092-1.072C7.314 10.294 8.442 9 10.009 9c1.163 0 2.098.7 2.536 1.702zm16.845 0A2.838 2.838 0 0 1 31.991 9c1.567 0 2.695 1.294 2.837 2.837 0 0 .077.383-.092 1.072-.229.939-.769 1.773-1.496 2.409l-3.85 3.317-3.785-3.317c-.727-.636-1.267-1.471-1.496-2.409-.169-.689-.092-1.072-.092-1.072C24.159 10.294 25.288 9 26.854 9c1.164 0 2.098.7 2.536 1.702z" fill="#e64c3c"/></svg>